<svg xmlns="http://www.w3.org/2000/svg" width="18" height="18" viewBox="0 0 24 24" fill="currentColor">
  <path d="M12 .5a11.5 11.5 0 0 0-3.64 22.41c.58.1.79-.25.79-.56v-2c-3.22.7-3.9-1.4-3.9-1.4-.53-1.35-1.3-1.7-1.3-1.7-1.06-.73.08-.72.08-.72 1.17.08 1.78 1.2 1.78 1.2 1.04 1.78 2.74 1.26 3.41.96.1-.77.41-1.26.75-1.55-2.57-.29-5.27-1.29-5.27-5.75 0-1.27.46-2.31 1.2-3.13-.12-.29-.52-1.46.11-3.05 0 0 .98-.31 3.2 1.2a11.1 11.1 0 0 1 5.82 0c2.22-1.51 3.2-1.2 3.2-1.2.63 1.59.23 2.76.11 3.05.75.82 1.2 1.86 1.2 3.13 0 4.47-2.7 5.46-5.28 5.74.42.37.8 1.1.8 2.22v3.29c0 .31.2.67.8.56A11.5 11.5 0 0 0 12 .5z"/>
</svg>